<svg width="64" height="64" viewBox="0 0 64 64" fill="none" xmlns="http://www.w3.org/2000/svg">
<rect width="64" height="64" rx="8" fill="#F6F6F6"/>
<path d="M28.6897 48.0565C29.8835 45.9955 31.0774 43.9284 32.2713 41.8674L16.7199 41.8488L20.9482 34.6292H13.7477C11.1672 39.105 8.58049 43.5807 6 48.0565H28.6897Z" fill="#141517"/>
<path d="M15.5571 31.5254C18.5418 26.3482 21.5265 21.1772 24.5111 16H31.6868L26.3082 25.3177C31.4816 25.3177 36.655 25.3301 41.8284 25.3301L38.2468 31.513L15.5571 31.5254Z" fill="#141517"/>
<path d="M58 16.0063C51.8131 26.6897 45.6323 37.3669 39.4454 48.0503C37.0576 48.0503 34.6637 48.0565 32.2759 48.0627L47.2428 22.2139H31.6914C32.8853 20.1468 34.0854 18.0734 35.2792 16.0062L58 16.0063Z" fill="#7D51FE"/>
</svg>
